<svg width="29" height="30" viewBox="0 0 29 30" fill="none" xmlns="http://www.w3.org/2000/svg">
<path d="M5.58999 26.1734C2.27206 23.6993 0.500198 20.3431 0.0811508 16.2751C-0.146551 14.0613 0.0849777 11.878 1.03023 9.81912C1.42057 9.37137 1.60618 9.71006 1.74586 10.0315C1.87215 10.3204 1.82431 10.6381 1.76117 10.9442C1.54112 11.8493 1.60618 12.7754 1.66932 13.6805C1.81857 15.7853 1.99652 17.8901 2.26249 19.9834C2.38113 20.9114 3.0317 21.6252 3.55599 22.3695C4.6945 23.9825 6.35346 24.9986 7.91484 26.1218C8.04305 26.2136 8.19229 26.2729 8.3205 26.3667C8.55394 26.5389 8.81608 26.7322 8.64196 27.0594C8.48123 27.3598 8.16359 27.3158 7.87849 27.2526C7.56851 27.1837 7.29106 27.0173 6.98299 26.9484C6.4721 26.7743 6.03966 26.4585 5.58808 26.1734H5.58999Z" fill="#081184"/>
<path d="M1.57272 10.9501C1.35267 10.5923 2.11423 9.76374 1.0293 9.81923C2.7935 5.32069 6.09996 2.5634 10.6961 1.26416C10.7497 1.75401 10.3191 1.77888 10.0379 1.92239C9.51931 2.18836 8.94718 2.35483 8.50326 2.79493C9.96897 2.85042 11.2586 2.08695 12.6727 1.94152C14.1135 1.79419 15.5582 1.76931 17.0067 1.7961C17.3109 1.85542 17.6362 1.89369 17.6228 2.3223C17.4774 2.62271 17.2152 2.5347 16.9741 2.51365C16.5321 2.43711 16.182 2.74326 15.7725 2.80832C14.6703 2.80832 13.5911 3.07812 12.4852 3.06664C11.8843 3.0609 11.3026 3.25224 10.7631 3.52587C10.1144 3.85498 9.43703 4.11138 8.74053 4.3123C6.66825 4.91312 5.12792 6.176 4.08317 8.04545C3.79042 8.56974 3.34841 8.89311 2.84708 9.16674C2.78776 9.23371 2.72462 9.29685 2.66339 9.36191C2.12571 9.78096 2.252 10.5942 1.69327 10.9998C1.65308 10.9845 1.6129 10.9673 1.57081 10.952L1.57272 10.9501Z" fill="#091A97"/>
<path d="M5.58984 26.1735C6.07778 26.2347 6.46047 26.5371 6.88525 26.7437C8.59589 27.4651 10.3677 27.9683 12.1989 28.2649C15.0825 28.7012 17.7881 28.0831 20.3904 26.87C22.7612 25.7659 24.5273 24.0132 25.84 21.7764C26.1442 20.7929 27.1009 20.1499 27.2425 19.0822C27.5602 18.6039 27.4607 17.85 28.1897 17.6433C27.4626 21.5008 25.442 24.5337 22.235 26.7495C17.3844 30.1018 11.0394 30.0731 6.19067 26.7341C5.96679 26.5811 5.6683 26.4892 5.58984 26.1735Z" fill="#455ADA"/>
<path d="M27.4364 19.1356C27.3981 20.2301 26.3974 20.8367 26.0874 21.7934C25.6818 22.2986 25.4541 22.0555 25.3335 21.5906C25.2264 21.1754 25.3699 20.7754 25.5325 20.3947C25.9114 19.5087 26.1123 18.5941 26.0281 17.6278C26.0032 17.0882 26.1448 16.562 26.2615 16.0511C26.694 14.1568 26.3936 12.2663 26.3342 10.3758C25.8961 8.17915 24.6561 6.54506 22.8211 5.30897C22.3944 5.02195 21.8682 4.76746 21.8893 4.11114C22.2739 3.87388 22.5226 4.17046 22.7905 4.35415C23.1215 4.57994 23.443 4.81721 23.8468 4.89757C25.3297 6.05904 26.3821 7.5458 27.1322 9.25643C27.2202 9.45926 27.2891 9.66208 27.4536 9.81516C27.6029 9.97589 27.6775 10.1577 27.6297 10.3796C27.3005 10.8102 27.5321 11.2923 27.5263 11.7458C27.5053 13.2823 27.5799 14.8093 27.2374 16.3439C27.0365 17.2394 27.2871 18.2076 27.4364 19.1356Z" fill="#0A1CAA"/>
<path d="M23.827 5.08137C23.0043 5.14069 22.6522 4.24519 21.9117 4.13612C21.6744 4.25476 21.4754 4.1323 21.2707 4.04045C20.7579 3.69603 20.1188 3.57548 19.65 3.14878C19.141 2.72973 18.521 2.67424 17.9011 2.62066C17.7595 2.58814 17.637 2.53073 17.5528 2.40636C17.5222 2.03132 17.2486 2.03706 16.9769 2.03706C15.383 1.69072 13.7814 1.83997 12.1798 1.97774C11.9923 1.99305 11.8086 2.06576 11.6173 2.0428C11.2576 1.99879 10.8749 1.90886 10.8308 1.49555C10.7868 1.07076 11.2882 1.28507 11.4623 1.08033C15.4117 0.246064 19.0319 0.984658 22.3154 3.34012C22.8072 3.93138 23.6089 4.25284 23.8251 5.08328L23.827 5.08137Z" fill="#090F6E"/>
<path d="M27.4364 19.1357C27.3311 19.0783 27.1302 19.017 27.1321 18.9654C27.1895 17.8957 26.7092 16.874 27.0728 15.745C27.4593 14.5395 27.2354 13.2231 27.268 11.9545C27.2814 11.4321 26.8508 10.7471 27.6296 10.3816C28.5959 12.7409 28.7145 15.1671 28.1903 17.6432C27.9396 18.1407 27.687 18.6382 27.4364 19.1357Z" fill="#09138F"/>
<path d="M11.4651 1.07848C11.4173 1.3368 10.8643 1.21242 11.0327 1.55876C11.1532 1.80559 11.4996 1.89935 11.7923 1.8209C13.0686 1.48031 14.3678 1.73097 15.6537 1.65826C16.134 1.63147 16.5913 1.71949 16.9797 2.03329C14.4042 2.00459 11.8459 2.04669 9.41007 3.101C8.9872 3.28469 8.14528 3.46265 7.97307 2.93453C7.8066 2.42173 8.63129 2.35475 9.03121 2.09835C9.56123 1.75967 10.2539 1.75776 10.6978 1.26026C10.9274 1.08996 11.1896 1.05743 11.4651 1.07465V1.07848Z" fill="#08137F"/>
<path d="M23.8281 5.08129C23.4243 4.4135 22.6704 4.04994 22.3184 3.33813C24.6623 4.9971 26.4801 7.0732 27.4541 9.8171C26.815 9.3196 26.6849 8.51021 26.2792 7.86729C25.6057 6.80149 24.8135 5.86198 23.8281 5.08129Z" fill="#2130A0"/>
<path d="M12.222 28.4428C10.3047 28.307 8.51754 27.7674 6.88536 26.7437C7.25657 26.6729 7.55124 26.8814 7.87079 27.0096C8.09084 27.0977 8.40273 27.2526 8.50988 26.9197C8.5979 26.648 8.26496 26.6365 8.09084 26.5198C6.15825 25.2282 4.2601 23.9271 2.91111 21.9371C2.14381 20.8043 1.93333 19.5912 1.8147 18.3283C1.60422 16.08 1.34016 13.8317 1.39374 11.5642C1.39948 11.3422 1.388 11.1184 1.5736 10.9519L1.60996 10.9883C2.03283 11.5853 1.77069 12.2664 1.84723 12.9036C1.82809 13.2614 1.87019 13.6097 2.0137 13.9426C2.53798 14.708 2.54755 15.5232 2.50163 16.4416C2.43657 17.7408 2.4978 19.0822 2.89197 20.3527C3.19813 21.3362 3.80661 22.1341 4.64661 22.7407C5.27997 23.6573 6.28645 24.0954 7.16664 24.6944C7.41347 24.8379 7.65266 24.9929 7.85357 25.1957C10.2148 27.0288 12.8362 27.8075 15.8097 27.1685C16.0546 27.1149 16.3015 27.0575 16.556 27.0479C16.7148 27.0402 16.8736 27.0402 17.0305 27.0651C17.285 27.1072 17.5605 27.1608 17.6084 27.4612C17.6619 27.7942 17.4342 27.974 17.153 28.0946C16.6 28.3318 15.9934 28.4581 15.4213 28.4926C14.3593 28.5576 13.282 28.6342 12.2201 28.439L12.222 28.4428Z" fill="#0A1CA1"/>
<path d="M15.8437 2.61306C16.1977 2.44276 16.5172 2.1634 16.9573 2.28395C16.3833 3.70182 16.521 4.11513 17.7877 5.02976C18.4249 5.4909 19.1004 5.89081 19.7605 6.31752C20.8091 7.09055 21.7582 7.97457 22.5809 8.98105C24.68 11.5527 25.0359 14.4287 24.0084 17.5323C23.7367 18.3551 23.4018 19.1664 23.4114 20.2647C24.0084 19.6562 24.2877 19.0554 24.6838 18.5445C24.9211 18.2384 25.0321 17.7676 25.5545 17.781C25.7018 17.9322 25.7362 18.1197 25.7381 18.3187C25.0359 20.3508 23.8534 22.0767 22.3628 23.6056C21.7448 24.239 21.1554 24.9144 20.191 25.0139C19.1023 24.8168 18.8172 24.3155 19.462 23.4946C20.8244 21.7591 21.6701 19.7442 22.6709 17.8155C24.15 14.9625 23.6754 12.2779 21.8806 9.71007C20.4781 7.70286 18.4861 6.5433 16.2933 5.65546C15.5605 5.35887 14.8448 5.01828 14.0948 4.76761C13.7924 4.6662 13.4844 4.51313 13.4729 4.13426C13.4633 3.76114 13.7523 3.57936 14.0469 3.45307C14.5712 3.2292 15.0802 2.97662 15.6121 2.77188C15.6963 2.72787 15.7729 2.67429 15.8437 2.60924V2.61306Z" fill="#063BDC"/>
<path d="M2.52742 9.22398C2.52742 9.1704 2.53508 9.11874 2.54465 9.06708C2.69772 8.92931 2.88333 8.9848 3.05937 8.97523C3.49755 9.24312 3.82858 9.13022 4.16726 8.75327C4.54995 8.32657 4.93838 7.84438 5.62722 7.93048C6.22231 8.10078 6.20509 8.53131 6.05393 8.98863C5.91616 9.40959 5.70376 9.79993 5.48754 10.1865C4.79296 11.4264 4.40644 12.7371 4.50785 14.1741C4.54038 14.6467 4.5002 15.1232 4.34712 15.5786C4.24762 15.879 4.15769 16.2138 3.74821 16.2043C3.36552 16.1947 3.21436 15.8962 3.12251 15.5881C2.93116 14.9567 2.93116 14.2755 2.59822 13.6823C2.51594 13.4833 2.48533 13.2748 2.47767 13.0624C2.46428 12.6854 2.49107 12.3123 2.63266 11.9545C2.99622 11.0284 2.92351 10.1195 2.52742 9.22398Z" fill="#0C4ADE"/>
<path d="M3.10935 9.07287C2.91992 9.07287 2.7324 9.06904 2.54297 9.06713C3.22799 8.72462 3.69104 8.21755 4.10052 7.53445C5.05916 5.93289 6.44833 4.77907 8.26995 4.20503C9.14057 3.9295 9.9844 3.5889 10.8282 3.233C12.426 2.56137 14.1596 2.74698 15.8415 2.61304C15.8396 2.67618 15.8358 2.73741 15.8319 2.80056C14.8274 3.16985 13.8247 3.54489 12.7474 3.66352C12.3686 3.70562 12.0069 3.84722 11.6682 4.01369C9.91743 4.87474 7.95997 5.29379 6.35457 6.46865C6.07521 6.70592 5.77097 6.91257 5.505 7.16706C4.95584 7.60142 4.50618 8.12188 4.11583 8.70357C3.88239 9.05373 3.5992 9.37711 3.10744 9.07095L3.10935 9.07287Z" fill="#0B25B9"/>
<path d="M19.6364 6.40748C18.5783 6.03626 17.7383 5.30532 16.8734 4.64709C16.1386 4.08645 16.242 2.87906 16.9557 2.28589C17.1547 2.32607 17.3537 2.36625 17.5508 2.40644C17.6713 2.41792 17.79 2.42748 17.9105 2.43897C17.9564 2.4868 17.9736 2.53464 17.9622 2.58439C17.9507 2.63605 17.9354 2.66093 17.922 2.66093C16.6572 3.16225 18.0157 3.33446 18.0521 3.67123C18.4845 4.47106 19.1045 5.14077 19.5982 5.8985C19.6671 6.06497 19.7379 6.23144 19.6364 6.40939V6.40748Z" fill="#0B4DE0"/>
<path d="M2.52572 9.22408C3.14568 9.56468 3.36956 10.7204 2.95625 11.7785C2.79169 12.2014 2.73046 12.6186 2.72664 13.0567C2.17939 13.7226 2.10859 13.7207 1.59961 13.0395C1.60344 12.3545 1.60726 11.6695 1.61109 10.9845C2.01292 10.4468 1.90768 9.64696 2.52764 9.22217L2.52572 9.22408Z" fill="#7184DC"/>
<path d="M12.2226 28.4427C13.541 28.3873 14.8708 28.5805 16.1758 28.2476C16.2677 28.2246 16.371 28.238 16.4533 28.1997C16.8302 28.0237 17.498 28.0447 17.41 27.4975C17.3449 27.0957 16.7537 27.375 16.4073 27.2985C16.5681 26.581 17.3182 26.5982 17.7506 26.2174C21.0704 25.5286 23.292 23.4831 24.7615 20.5191C25.1959 19.6447 25.7106 18.8028 25.9421 17.8384C25.9804 17.6834 26.0875 17.5571 26.2865 17.6107C26.3956 18.7377 26.0971 19.7748 25.6723 20.81C25.5422 21.1257 24.9949 21.8777 26.0856 21.7935C25.1882 23.661 23.7627 25.1133 22.0807 26.2078C19.2986 28.0199 16.1854 28.8484 12.833 28.6226C12.613 28.6073 12.3872 28.6341 12.2207 28.4427H12.2226Z" fill="#0A1DB5"/>
<path d="M26.2888 17.6125C25.5005 19.7613 24.5361 21.8221 23.0187 23.5595C21.6257 25.1515 19.8481 26.0815 17.7395 26.3513C16.6526 26.9693 15.4682 27.0325 14.2665 26.9387C12.4564 26.7971 10.6501 26.6115 8.91843 26.0164C8.43815 25.8519 8.01719 25.5878 7.66894 25.2166L7.09873 24.8377C6.97053 24.7134 6.74474 24.6215 6.95522 24.3881C7.54265 24.2694 8.04972 24.6598 8.62184 24.6502C8.95479 24.7478 9.23606 24.9564 9.54987 25.0941C12.1809 26.1523 14.8348 26.2384 17.5137 25.2874C17.9366 25.2549 18.369 25.2989 18.6962 24.899C18.9124 24.6349 19.2281 24.6005 19.5286 24.8263C19.7543 24.9946 19.9801 24.9908 20.2097 24.832C21.9127 24.3077 22.8273 22.8516 23.7783 21.5581C24.4806 20.6033 25.2096 19.5776 25.5311 18.3741C26.0056 16.0492 26.44 13.7225 26.1491 11.3306C26.0994 10.925 26.1549 10.5155 26.4821 10.2036C26.836 11.279 26.6122 12.4022 26.7461 13.4948C26.9202 14.905 26.4055 16.2367 26.2888 17.6144V17.6125Z" fill="#092BCD"/>
<path d="M26.48 10.2018C26.3288 12.0329 26.6483 13.8737 26.302 15.7049C26.1279 16.6252 25.9652 17.5341 25.527 18.3722C25.527 18.1828 25.527 17.9914 25.527 17.802C25.2936 17.1916 25.594 16.6214 25.6686 16.0378C25.9767 13.6364 25.8753 11.2522 25.4199 8.87956C24.9607 7.63008 24.1972 6.61403 23.0625 5.90222C22.6837 5.66496 22.3737 5.35115 22.0139 5.09474C21.6887 4.846 21.4399 4.53602 21.2849 4.15332C21.2753 4.05956 21.306 3.98111 21.3748 3.91797C21.5528 3.98877 21.7307 4.06148 21.9087 4.13228C22.6396 5.19042 23.9006 5.64391 24.7234 6.61977C25.617 7.68174 26.2733 8.81833 26.4761 10.1979L26.48 10.2018Z" fill="#0A39D2"/>
<path d="M21.3776 3.91984L21.3662 4.11884C21.3068 4.18199 21.2341 4.21834 21.148 4.23174C20.838 4.2126 20.618 3.99256 20.3501 3.87966C19.9349 3.68066 19.4565 3.57351 19.2154 3.11428C19.2097 3.02052 19.246 2.94972 19.3264 2.89997C19.5005 2.88658 19.6785 2.85022 19.8124 3.00904C20.2525 3.45296 20.9777 3.40704 21.3776 3.91984Z" fill="#4570E7"/>
<path d="M19.8122 3.00906L19.2879 2.944C18.7674 3.07795 18.2833 3.07412 17.914 2.60341C17.9179 2.54792 17.9178 2.49243 17.9121 2.43694C18.6201 2.38336 19.2745 2.50008 19.8122 3.00906Z" fill="#0B25B9"/>
<path d="M7.66407 25.2148C9.1757 26.3208 11.0184 26.162 12.7213 26.5275C14.3975 26.8872 16.0737 26.6959 17.7365 26.3495C17.461 26.9006 16.7568 26.8489 16.4067 27.2986C13.393 28.152 10.6663 27.4421 8.12522 25.7602C7.9243 25.6282 7.66216 25.5267 7.66407 25.2148Z" fill="#122CBC"/>
<path d="M4.61899 22.9321C2.95811 22.0175 2.46443 20.4523 2.36111 18.7244C2.29605 17.6376 1.97842 16.5431 2.34389 15.4467C2.55437 14.8191 1.79281 14.5531 1.78516 14.002C2.16593 13.8929 2.55054 13.7609 2.87965 14.1226C3.20303 15.4505 3.38672 16.7765 2.83947 18.0949C2.75145 19.0669 3.21642 19.8802 3.59911 20.7144C4.01051 21.631 4.92131 22.0978 5.5164 22.8517C5.60059 23.0163 5.69626 23.1809 5.55658 23.3626C5.11457 23.5042 4.86199 23.2268 4.61899 22.9321Z" fill="#0C31CC"/>
<path d="M4.6191 22.9319L5.57583 23.3127C6.07524 23.6246 6.70286 23.7891 6.90568 24.4493C6.96883 24.5775 7.03197 24.7076 7.0932 24.8358C6.18431 24.3096 5.14339 23.9556 4.61719 22.9319H4.6191Z" fill="#0424CE"/>
<path d="M2.72812 14.0037C2.41431 14.2123 2.10051 14.2238 1.78479 14.0037C1.61258 13.7033 1.5456 13.3838 1.60109 13.0413C1.97039 13.445 2.34734 13.4393 2.72812 13.0585C2.72812 13.2479 2.72812 13.4354 2.73003 13.6249C2.83145 13.7531 2.84867 13.8794 2.72621 14.0037H2.72812Z" fill="#2944D9"/>
<path d="M9.37715 25.2109C9.04612 25.2377 8.87965 24.9373 8.6175 24.8301C8.86243 24.3269 8.77823 23.9863 8.31326 23.5749C6.9815 22.3981 6.10131 20.9535 5.81238 19.1395C5.58659 17.7102 5.15989 16.3057 4.98385 14.8687C4.65473 12.1803 5.70905 9.93578 7.41203 7.94196C7.73923 7.55926 8.11044 7.21293 8.38024 6.78049C8.47782 6.62358 8.63281 6.46094 8.53714 6.26577C8.41468 6.01702 8.15636 6.09547 7.94397 6.09547C7.62251 6.09547 7.32783 6.20836 7.03316 6.327C6.74997 6.43989 6.46678 6.64655 6.14723 6.40545C6.99681 5.71852 7.88656 5.11004 8.98489 4.8766C9.22598 4.82493 9.47473 4.75031 9.68713 4.62785C11.591 3.5257 13.7169 3.18128 15.8331 2.79858C15.328 3.25399 14.6832 3.43385 14.0728 3.68451C13.8738 3.76679 13.6308 3.84716 13.6288 4.11887C13.6288 4.40015 13.868 4.44607 14.0804 4.51878C15.6916 5.07177 17.2835 5.70321 18.7435 6.56235C21.0282 7.9056 22.6642 9.78844 23.4717 12.4233C24.327 15.2169 23.1655 17.4518 21.9581 19.769C21.2176 21.1907 20.4503 22.5723 19.4879 23.8619C18.9693 24.5584 19.6007 24.767 20.2035 24.8282C20.0064 25.0578 19.7997 25.2128 19.4955 24.9851C19.1205 24.7058 18.8641 24.8684 18.6746 25.2281C18.4316 25.6854 18.0949 25.5993 17.7351 25.3984C17.3677 24.9067 17.45 24.4226 17.8691 24.0456C19.4151 22.6545 20.3566 20.8157 21.5391 19.1567C23.8888 15.5307 23.598 11.8703 20.6302 8.99627C19.3405 7.50569 17.5974 6.70204 15.793 6.17584C12.6492 5.25929 9.20876 6.69438 7.33549 9.42297C5.99415 11.3747 5.49666 13.4393 6.03051 15.791C6.39407 17.3925 6.72127 18.996 7.29339 20.5402C7.71435 21.8624 8.6022 22.7923 9.77323 23.4869C10.0698 23.6629 10.3798 23.8179 10.6726 23.9978C10.8888 24.1298 11.1356 24.2848 11.1069 24.5622C11.0744 24.8952 10.7797 24.9985 10.4889 25.0387C10.1157 25.0884 9.7541 25.2109 9.37523 25.2071L9.37715 25.2109Z" fill="#0628D6"/>
<path d="M25.532 8.68444C26.0372 9.26613 25.8956 9.99516 25.9492 10.6649C26.1386 13.0605 26.3261 15.4638 25.5263 17.804C24.9675 18.6038 24.405 19.3998 23.8558 20.2054C23.7104 20.4178 23.5879 20.7009 23.2914 20.5976C22.924 20.4713 23.0541 20.125 23.0981 19.8609C23.3641 18.2804 24.03 16.809 24.2519 15.1998C24.5389 13.1351 23.9056 11.3824 22.8379 9.72345C21.994 8.41273 20.7235 7.49427 19.6347 6.40743C19.5716 6.27922 19.5085 6.15294 19.4453 6.02473C19.7515 5.78555 19.9792 6.01517 20.203 6.16633C21.8524 7.27996 23.1077 8.74758 24.0433 10.4946C24.118 10.6323 24.162 10.7892 24.2615 10.9117C24.4777 11.1738 24.6748 11.5527 25.0843 11.3958C25.4784 11.2446 25.4421 10.8543 25.3981 10.4965C25.3235 9.88418 25.1072 9.25848 25.5301 8.68253L25.532 8.68444Z" fill="#064FE1"/>
<path d="M2.72662 14.0039C2.72662 13.8776 2.72853 13.7514 2.73045 13.6251C3.32553 14.0594 3.12079 14.7597 3.29683 15.3338C3.38676 15.6323 3.39442 16.0379 3.78094 16.036C4.17128 16.036 4.02203 15.5921 4.1311 15.3567C4.20764 15.1922 4.2593 14.9855 4.23634 14.8095C3.96463 12.7277 4.72427 10.9271 5.70205 9.16671C5.91635 8.78019 6.36602 8.1985 5.38633 8.11431C5.45521 7.41972 5.96228 7.46756 6.41385 7.57089C6.99746 7.70291 6.83673 8.16214 6.72957 8.55249C6.63964 8.88352 6.44064 9.17054 6.31818 9.49008C4.98259 11.4629 4.85821 13.6193 5.15097 15.9212C5.41503 18.0031 5.64273 20.06 6.71618 21.9199C6.82525 22.1074 6.8616 22.337 6.92283 22.5494C7.01468 22.8785 7.21559 23.2631 6.86352 23.51C6.49613 23.7664 6.14023 23.51 5.83025 23.2842C5.67717 23.1732 5.55471 23.0221 5.38633 22.9302C4.72236 22.2624 3.8039 21.8242 3.48626 20.8407C3.90531 20.7221 4.08518 21.0971 4.36263 21.2693C4.49466 21.3516 4.62668 21.4741 4.78741 21.3727C4.94432 21.2732 4.92518 21.099 4.86587 20.9536C4.48891 20.0275 4.01246 19.1454 3.61255 18.2288C3.35998 17.6491 2.89692 18.3781 2.54102 18.181C3.08826 16.811 3.02512 15.4122 2.72662 14.0039Z" fill="#063CDE"/>
<path d="M6.14607 9.44409C6.23026 9.21065 6.32976 8.98103 6.39291 8.74185C6.47519 8.43378 6.83683 8.03387 6.51537 7.82722C6.17095 7.60334 5.66005 7.60717 5.38834 8.11424C4.7282 8.22522 4.43161 8.80691 4.02405 9.22021C3.58778 9.66031 3.3486 9.53785 3.11133 9.07288C3.54568 9.11689 3.77721 8.87771 3.97238 8.5218C4.31489 7.89419 4.82005 7.40243 5.39026 6.97573C5.88584 6.78056 6.36995 6.5452 6.88849 6.42657C7.54481 6.27732 8.01361 6.63896 7.80887 7.1996C7.48358 8.08936 6.97842 8.90258 6.14798 9.446L6.14607 9.44409Z" fill="#0838D7"/>
<path d="M6.14698 9.44403C6.71528 8.81259 7.21278 8.12949 7.55911 7.35454C7.83274 6.74223 7.53998 6.5107 6.94681 6.62551C6.42443 6.72692 5.94798 7.03308 5.38925 6.97376C5.64183 6.78433 5.89632 6.59298 6.14889 6.40355C6.87984 6.25813 7.48449 5.65156 8.30727 5.82951C8.54454 5.88117 8.84878 5.76063 9.0076 6.00555C9.1932 6.28874 8.87174 6.45904 8.76268 6.65613C8.15228 7.7621 7.16303 8.56958 6.47036 9.6392C5.13859 11.6981 4.97977 13.8469 5.42943 16.1392C5.67053 17.3696 5.86762 18.6095 6.1776 19.8226C6.57177 21.3649 7.46535 22.6201 8.69379 23.617C9.53571 24.3001 9.55485 24.2944 8.61534 24.8282C7.98773 24.9603 7.47492 24.5737 6.90471 24.4474C6.47801 24.0494 5.83509 23.904 5.57486 23.3109C5.51171 23.1846 5.44857 23.0564 5.38542 22.9301C5.91163 22.9167 6.42635 23.6897 6.78608 23.2688C6.98507 23.0353 6.65213 22.18 6.36703 21.7265C4.97403 19.5031 5.00465 16.9869 4.83435 14.5262C4.70806 12.716 4.99125 10.9537 6.14507 9.44403H6.14698Z" fill="#042ED7"/>
<path d="M25.5318 8.68442C25.549 9.21828 25.4648 9.78083 25.6083 10.2783C25.8035 10.9633 25.7231 11.6178 25.0821 11.7708C24.466 11.9182 24.0967 11.2331 23.8422 10.7089C22.8606 8.68825 21.4331 7.09817 19.447 6.02472C18.9418 5.26507 18.2472 4.63363 17.9258 3.75153C18.142 3.5621 18.3448 3.67308 18.5477 3.7764C19.1714 4.09595 19.7091 4.53987 20.2449 4.98571C20.3099 5.04503 20.3674 5.112 20.4209 5.1828C21.7278 6.4629 22.8644 7.89034 23.9819 9.33308C24.1464 9.54548 24.3416 9.85163 24.6707 9.68516C24.9769 9.53017 24.8984 9.19914 24.8563 8.91978C24.7396 8.11613 24.2115 7.5727 23.6585 7.04459C23.3619 6.7614 23.0787 6.4629 22.7573 6.20841C22.4722 5.92139 22.1966 5.62863 22.0091 5.26316C21.9785 5.12156 21.9919 4.99336 22.1143 4.89386C23.094 5.70134 24.2765 6.28686 24.9443 7.4445C25.174 7.8425 25.5758 8.16013 25.5318 8.68634V8.68442Z" fill="#0B60E3"/>
<path d="M18.4819 3.94663C18.2963 3.88157 18.1107 3.81651 17.9251 3.75145C17.8237 3.68066 17.7146 3.61943 17.6209 3.53906C17.3721 3.32284 16.8421 3.23482 16.932 2.87509C17.0468 2.41586 17.5711 2.68183 17.9117 2.60529C18.369 2.71819 18.8283 2.833 19.2856 2.94589C19.2626 2.9765 19.2416 3.00521 19.2186 3.03582C18.8627 3.2463 18.7747 3.60029 18.7115 3.96959C18.6293 4.01551 18.5508 4.00977 18.48 3.94854L18.4819 3.94663Z" fill="#4570E7"/>
<path d="M1.99032 11.9086C1.97692 11.8473 1.9597 11.788 1.95205 11.7268C1.8889 11.2484 1.89464 10.793 2.3711 10.4984C2.49738 10.4199 2.62559 10.4505 2.69256 10.5615C2.9834 11.0456 2.92026 11.501 2.55096 11.9201C2.3577 12.1439 2.16827 12.2779 1.9884 11.9067L1.99032 11.9086Z" fill="#E0E3F1"/>
<path d="M1.99146 11.9084C2.17515 12.0481 2.36458 12.006 2.5521 11.9218C2.54827 11.985 2.5521 12.05 2.5387 12.1113C2.46408 12.4423 2.67073 13.0431 2.112 12.9723C1.60494 12.9092 1.97997 12.4059 1.96849 12.096C1.96658 12.0328 1.9838 11.9716 1.99146 11.9084Z" fill="#BCCCEA"/>
<path d="M9.37738 25.2109C9.64527 24.8856 10.0069 24.8205 10.3992 24.8282C10.623 24.832 10.9062 24.8378 10.9522 24.5795C11 24.3097 10.6958 24.2542 10.5082 24.1661C9.0521 23.483 7.86001 22.5244 7.19222 21.0166C7.14247 20.9037 7.12907 20.7736 7.09846 20.653C7.18648 20.1728 6.90902 19.7575 6.84205 19.304C6.79804 18.996 6.63157 18.6975 7.04297 18.5195C7.52133 18.7798 7.53855 19.3021 7.70694 19.7288C8.65792 22.1341 10.3953 23.7548 12.9498 23.9633C15.3703 24.1604 17.7258 23.6419 19.4135 21.5351C20.0545 20.7353 20.5673 19.7996 21.4704 19.2256C21.5718 19.2199 21.658 19.2524 21.7287 19.3251C21.0935 20.2876 20.3951 21.2022 19.8574 22.2374C19.5091 22.909 18.8241 23.3778 18.2922 23.9308C17.8425 24.3977 17.678 24.8205 17.7392 25.4042C14.9245 26.5962 12.1385 26.514 9.3793 25.2147L9.37738 25.2109Z" fill="#0424CE"/>
<path d="M20.2074 5.2708C20.1998 5.21339 20.196 5.15408 20.1941 5.09667C20.152 5.04692 20.1347 4.99335 20.1424 4.93977C20.152 4.88428 20.1615 4.85749 20.1749 4.85558C20.5213 4.63553 21.0436 4.65658 21.1661 4.13038L21.3689 4.1189C21.6196 4.3753 21.8683 4.63362 22.119 4.89002C22.119 5.01248 22.119 5.13303 22.119 5.25358C22.3907 5.91181 22.0348 6.02087 21.5029 5.93477C21.1623 5.87928 20.9097 5.62096 20.6093 5.4698C20.4715 5.41239 20.3337 5.35308 20.2074 5.26888V5.2708Z" fill="#498DEC"/>
<path d="M21.1659 4.1304C21.6309 5.38371 20.6263 4.72357 20.2264 4.84986C19.8456 4.79054 19.6983 4.53222 19.6543 4.18397C19.6907 3.66351 19.9719 3.55445 20.4216 3.73048C20.7507 3.71326 20.9114 4.00602 21.1659 4.1304Z" fill="#D7DFF4"/>
<path d="M20.421 3.73043C20.0038 3.71703 19.7819 3.90073 19.8144 4.337C19.3934 4.34656 19.0662 4.12269 18.7352 3.90838C18.2626 3.26355 18.4999 3.01288 19.2231 3.03393C19.6231 3.26546 20.0211 3.4989 20.421 3.73043Z" fill="#B7CDF0"/>
<path d="M2.54102 18.1789C3.59724 17.3619 3.57428 17.3714 4.06604 18.6554C4.32244 19.3251 4.68026 19.9565 4.9845 20.6071C5.1548 20.9726 5.41694 21.4127 5.00555 21.7073C4.61903 21.9829 4.33392 21.5715 4.05839 21.3208C3.87469 21.1524 3.67761 21.0013 3.48626 20.8405C2.88161 20.056 2.61564 19.151 2.54102 18.1789Z" fill="#0B4BDF"/>
<path d="M7.09293 18.5635C6.76573 19.0878 7.15416 19.5661 7.20009 20.0656C7.22114 20.2875 7.32446 20.4884 7.09676 20.653C6.28163 18.7568 5.86067 16.7457 5.61 14.7251C5.23114 11.6655 6.64518 9.28323 8.93177 7.41378C10.8644 5.83518 13.1605 5.21522 15.5772 5.87727C17.5289 6.41113 19.4615 7.15929 20.778 8.87566C20.778 9.42291 20.734 9.44778 20.0241 9.31193C19.672 9.15311 19.3869 8.89479 19.1477 8.60586C18.5775 7.92084 17.8332 7.54581 16.9989 7.30662C15.7762 6.79764 14.4904 6.83783 13.2026 6.84931C12.6075 6.85505 12.1177 7.11911 11.6049 7.34872C10.6003 7.87109 9.62826 8.42217 8.83801 9.27174C7.70333 10.4887 7.25175 11.9487 7.16564 13.5541C7.11589 14.463 7.18095 15.3757 7.14077 16.2846C7.04318 16.717 7.02022 17.1418 7.14842 17.5838C7.24027 17.9014 7.38952 18.2554 7.09485 18.5654L7.09293 18.5635Z" fill="#041DD7"/>
<path d="M20 9.07087C20.2947 9.1474 20.6621 9.50713 20.7769 8.87378C22.2885 10.1175 22.9773 11.7478 23.2778 13.6651C23.6183 15.8311 22.7133 17.5666 21.7259 19.3213H21.5327C21.1404 18.8257 21.7125 18.4372 21.68 17.9818C22.013 16.872 22.5085 15.8139 22.5239 14.6065C22.5411 13.2996 22.0244 12.3027 21.0486 11.4952C20.5262 10.7624 20.0497 10.0085 20 9.07087Z" fill="#041ED4"/>
<path d="M20.207 5.27075L20.5802 5.27458C21.0088 5.57499 21.3953 5.94046 21.9081 6.11459C22.2487 6.23131 22.5702 6.27723 22.8725 6.02848C23.8043 6.86275 24.8873 7.58795 25.1246 8.95033C25.1954 9.35598 25.2356 9.83817 24.7821 10.0372C24.3592 10.2228 24.0665 9.84391 23.8522 9.55498C22.7366 8.03952 21.5216 6.614 20.207 5.27075Z" fill="#097BE8"/>
<path d="M22.8724 6.02861C22.8169 6.45149 22.6409 6.63135 22.1816 6.45914C21.5292 6.21422 20.9743 5.85831 20.5801 5.2728C20.9379 5.24027 21.1369 5.54259 21.4124 5.68036C21.9042 5.9272 22.1242 5.79708 22.1185 5.25366C22.4801 5.40483 22.5911 5.79708 22.8724 6.0267V6.02861Z" fill="#3287EA"/>
<path d="M18.735 3.9104C19.1598 3.88935 19.4947 4.09792 19.8142 4.33902C19.952 4.50931 20.0879 4.68153 20.2256 4.85182C20.2141 4.9341 20.2046 5.01447 20.1931 5.09675C19.6229 4.71405 19.0527 4.33136 18.4844 3.94867C18.5686 3.93719 18.6528 3.9238 18.735 3.91232V3.9104Z" fill="#3287EA"/>
<path d="M21.9141 17.9915C22.0308 18.5043 21.4262 18.8104 21.5352 19.3213C20.9459 20.0121 20.2934 20.6588 19.7825 21.4051C19.0209 22.5206 18.0413 23.33 16.7611 23.6821C15.3299 24.0782 13.8871 24.5412 12.3545 24.1452C10.0239 23.5443 8.41656 22.1303 7.5115 19.9145C7.33355 19.4782 7.23022 19.0133 7.09054 18.5617C7.08671 17.7944 6.5165 17.0711 6.9145 16.2732C7.44453 16.3612 7.41965 16.8472 7.54594 17.1993C7.70476 17.6413 7.97264 18.0374 8.0664 18.5043C8.35342 20.3335 9.44409 21.6385 11.0074 22.4345C13.7149 23.8122 16.2101 23.4219 18.7741 21.3037C19.7442 20.5019 20.4675 19.5337 21.1678 18.5253C21.4051 18.3321 21.497 17.936 21.9141 17.9934V17.9915Z" fill="#0217BA"/>
<path d="M7.86198 18.5578C7.54625 17.7962 7.23245 17.0347 6.91673 16.2731C6.9129 14.8265 6.76939 13.3704 7.12338 11.9429C7.71081 9.57217 9.3296 8.12751 11.4669 7.1593C11.6678 7.0311 11.8209 7.05024 11.9013 7.29707C11.8305 7.61088 11.5722 7.75056 11.3215 7.8558C10.3169 8.2825 9.58409 9.0364 8.88376 9.83432C7.63045 11.5239 7.18844 13.4182 7.44867 15.4886C7.58835 16.4491 7.82371 17.3791 8.35182 18.2133C8.46854 18.397 8.56613 18.596 8.49533 18.8295C8.09542 19.1796 8.03993 18.73 7.86389 18.5578H7.86198Z" fill="#0B0F80"/>
<path d="M20.0008 9.07086C20.3854 9.82859 20.77 10.5882 21.1546 11.346C21.4684 11.6559 21.7076 11.9984 21.6636 12.4711C21.5736 12.737 21.5469 13.0547 21.1699 13.091C21.0494 13.0049 20.9862 12.8825 20.9422 12.7466C20.4945 11.08 19.6104 9.67168 18.4011 8.45473C18.0031 7.96488 17.3028 7.87878 16.9297 7.3564C16.9412 7.20715 16.9756 7.08469 17.1708 7.16314C18.4681 7.27604 19.0976 8.37819 20.0027 9.07086H20.0008Z" fill="#0B0F89"/>
<path d="M17.1689 7.16315L16.9756 7.29518C16.7537 7.49801 16.4992 7.41573 16.2657 7.35258C15.001 7.00625 13.7438 6.93736 12.4828 7.36981C12.2781 7.4406 12.0542 7.4693 11.8514 7.33154C11.7232 7.27413 11.595 7.21673 11.4668 7.16124C13.3688 6.21599 15.2688 6.41499 17.167 7.16507L17.1689 7.16315Z" fill="#0F16A4"/>
<path d="M21.5312 12.4902C21.405 12.1094 21.2787 11.7267 21.1543 11.3459C22.1914 12.0137 22.7042 12.9877 22.7654 14.197C22.8343 15.5364 22.3961 16.7706 21.9139 17.9914C21.7245 18.1827 21.537 18.3722 21.3476 18.5635C21.1466 18.332 21.2347 18.0832 21.3399 17.8613C21.8336 16.8223 21.9082 15.7048 21.9943 14.5854C22.0364 14.0554 21.8049 13.6191 21.5848 13.1714C21.5312 12.9475 21.359 12.7313 21.5312 12.4902Z" fill="#020FA8"/>
<path d="M21.7376 13.051C22.6236 14.2144 22.1777 15.4811 21.973 16.7057C21.8658 17.3429 21.5616 17.9456 21.3473 18.5656C19.9983 21.0761 17.9528 22.8498 15.1802 23.376C12.7463 23.8372 10.0235 23.0584 8.35492 20.1308C8.07747 19.6429 7.71391 19.1817 7.85933 18.5599C8.06024 18.6708 8.26307 18.7799 8.46398 18.8909C8.53478 18.9406 8.59601 19 8.64959 19.0688C9.06672 19.7462 9.82063 20.0753 10.3143 20.6742C11.8738 22.3753 14.2139 22.957 16.3666 22.1074C18.2111 21.3784 19.6807 20.1863 20.601 18.3877C21.332 16.8932 21.9366 15.3759 21.5482 13.6557C21.4985 13.4375 21.5405 13.2118 21.7338 13.0529L21.7376 13.051Z" fill="#000D99"/>
<path d="M8.46744 18.8889C7.8781 17.8557 7.26197 16.832 7.26388 15.5844C7.1242 14.9396 7.23326 14.2986 7.17969 13.4968C7.97377 14.0173 7.6217 14.8822 8.16512 15.3644C8.75638 15.8906 9.47584 15.6858 10.1073 15.9154C10.3637 16.0781 10.5129 16.3402 10.7024 16.566C11.6763 18.07 13.0502 18.6632 14.8354 18.5197C15.7596 18.445 16.3605 17.804 17.1431 17.496C18.8326 17.9054 19.9118 17.4137 20.8303 15.837C21.0063 15.5366 21.1881 14.8477 21.5306 15.7547C21.3335 17.297 20.3978 18.4182 19.2976 19.3731C17.057 21.3171 14.5235 22.3198 11.5462 21.2616C10.2814 20.812 9.22326 20.0313 8.46362 18.8947L8.46936 18.8889H8.46744Z" fill="#EDEFF4"/>
<path d="M11.8507 7.32955C13.5537 6.57183 15.2624 6.71151 16.9731 7.2932C17.5012 7.61466 18.1269 7.78304 18.5497 8.27671C18.632 8.66706 18.9841 8.86989 19.1793 9.18561C19.6576 9.9663 19.5103 10.5116 18.6952 10.9402C18.1479 11.2273 17.549 11.2024 16.9654 11.2655C16.4028 11.2311 16.001 10.8235 15.5016 10.636C14.1851 10.1442 12.9204 10.0964 11.7283 10.9709C11.5254 11.1201 11.3092 11.2541 11.0413 11.2598C10.7639 11.2254 10.4864 11.2407 10.209 11.2139C9.09152 11.1067 8.77006 10.747 8.78154 9.61805C9.49144 8.43362 10.7122 7.93421 11.8526 7.32573L11.8507 7.32955Z" fill="#D1DAED"/>
<path d="M8.78027 9.62203C8.92952 11.0743 10.1216 10.9136 11.0822 11.1107C10.9042 11.9794 10.2039 12.6376 10.0986 13.537C9.9647 14.0976 10.0087 14.6506 10.1446 15.2055C10.2154 15.4983 10.3761 15.8044 10.1235 16.0933C9.64133 15.8867 9.13618 16.2426 8.64442 16.0111C7.70874 15.571 7.27438 14.8592 7.51357 13.7474L7.26099 13.8259C7.26099 14.4114 7.26099 14.9969 7.26099 15.5824C6.93187 13.382 7.2916 11.3575 8.77836 9.62012L8.78027 9.62203Z" fill="#DCE2EF"/>
<path d="M16.9648 11.1815C17.382 10.728 17.9866 11.0725 18.4803 10.8046C19.3452 10.3377 19.4332 10.0488 18.9701 9.17431C18.8209 8.89303 18.2622 8.76291 18.5492 8.27881C19.8389 9.49577 20.7382 10.9404 21.1362 12.6798C20.9506 14.1416 20.1087 14.9128 18.6429 14.9606C18.3253 14.4229 18.4286 13.7666 18.1493 13.2174C18.0077 12.3927 17.093 12.0139 16.9648 11.1815Z" fill="#DCE2EF"/>
<path d="M18.6942 14.9548C19.7446 14.4496 20.8965 14.0535 21.1376 12.6797L21.2314 13.0241C21.6122 13.9234 22.1288 14.8151 21.3787 15.7757C21.3634 15.7144 21.3692 15.636 21.3328 15.5958C21.1568 15.4006 21.1683 15.6226 21.1434 15.6972C20.7377 16.9123 19.8671 17.5456 18.6482 17.8594C18.0723 18.0068 17.6169 18.001 17.1749 17.6126C17.0428 17.1572 17.437 16.9754 17.659 16.7171C17.8809 16.4588 18.0665 16.1909 18.166 15.8637C18.3096 15.5403 18.3497 15.1576 18.6942 14.9529V14.9548Z" fill="#E6EAF1"/>
<path d="M21.3787 15.7756C21.8724 14.8304 21.2467 13.9445 21.2313 13.0241C21.4227 12.8978 21.2811 12.5821 21.5318 12.4902C21.6006 12.6778 21.6695 12.8634 21.7384 13.0509C22.1919 15.0217 21.7786 16.8433 20.774 18.5597C18.9505 21.3304 14.7026 22.7004 12.1424 21.7896C11.4096 21.5294 10.6308 21.3361 10.1295 20.6588C9.49229 20.1479 8.62549 19.8532 8.46094 18.8965C9.57074 20.0082 10.8011 20.9037 12.3701 21.2826C15.0509 21.9312 17.1614 20.8214 19.1285 19.1912C20.2287 18.2784 21.0457 17.1897 21.3787 15.7776V15.7756Z" fill="#07085D"/>
<path d="M10.1289 20.6589C12.8785 22.3236 15.5746 22.0538 18.3128 20.5613C19.281 20.0332 19.9124 19.174 20.7735 18.5598C19.6407 20.8789 16.4778 23.2153 13.5597 22.691C12.2528 22.4556 10.9 21.96 10.1289 20.6589Z" fill="#00067A"/>
<path d="M18.3376 15.9172C18.3051 16.7266 17.5168 17.0175 17.1743 17.6145C15.2991 19.5643 11.7764 19.0955 10.5059 16.6673C11.0646 16.1775 11.3918 15.3872 12.2758 15.3221C12.515 15.5709 12.7274 15.8464 13.001 16.0646C13.975 16.8433 15.012 16.7553 15.854 15.8311C16.1027 15.5575 16.1984 15.1404 16.606 15.0103C17.3101 15.0715 17.8478 15.4484 18.3396 15.9153L18.3376 15.9172Z" fill="#77CEE9"/>
<path d="M12.2178 15.3338C11.5634 15.6705 11.2994 16.5067 10.5072 16.6674C10.3809 16.4761 10.2527 16.2847 10.1264 16.0953C9.91213 15.2113 9.49691 14.3426 9.92935 13.4107C10.6947 12.9094 11.4716 12.4253 12.3824 12.2282C12.6981 12.1593 13.077 11.9718 13.2281 12.4865C12.3135 13.2309 12.4494 14.3502 12.2178 15.3376V15.3338Z" fill="#63C1DB"/>
<path d="M13.1749 12.4482C12.1914 12.32 11.3934 12.7793 10.6013 13.2595C10.3946 13.3858 10.2511 13.7991 9.92773 13.4107C10.0445 12.5114 10.4865 11.7728 11.0815 11.1126C13.062 9.47281 15.0194 9.83254 16.9654 11.1834C17.417 11.8091 18.1786 12.2071 18.3278 13.0529C17.9068 13.3973 17.5089 13.0892 17.0994 13.0127C16.3818 12.8788 15.7695 12.3143 14.9754 12.4942C14.3746 12.4827 13.7642 12.8022 13.173 12.4501L13.1749 12.4482Z" fill="#55BCD6"/>
<path d="M15.0605 12.341C15.3112 11.943 15.5887 12.2071 15.8642 12.3047C16.6755 12.5878 17.4562 12.9686 18.3287 13.0509C18.677 13.6422 18.6751 14.3004 18.6942 14.9529C18.5756 15.2743 18.4569 15.5958 18.3383 15.9173C17.6437 15.8522 17.1902 15.2456 16.5243 15.1136C16.3368 14.0306 15.9388 13.0586 15.0605 12.341Z" fill="#62C2DC"/>
<path d="M15.059 12.341C16.299 12.959 16.6568 13.6364 16.5228 15.1136C15.7613 17.0213 13.8918 17.404 12.495 15.9785C12.2826 15.7623 12.3477 15.5288 12.2156 15.3356C12.053 14.2143 11.9994 13.1274 13.1743 12.4501C13.7962 12.3085 14.4219 12.2262 15.059 12.3429V12.341Z" fill="#000101"/>
</svg>
