<svg width="21" height="20" viewBox="0 0 21 20" fill="none" xmlns="http://www.w3.org/2000/svg">
<g clip-path="url(#clip0_1_18095)">
<path d="M19.8417 7.5198L11.3777 0.339514C11.1367 0.121018 10.8229 0 10.4976 0C10.1722 0 9.85851 0.121018 9.61744 0.339514L1.15435 7.5199C0.94769 7.70713 0.782529 7.93555 0.669495 8.19047C0.55646 8.44538 0.498058 8.72115 0.498047 9L0.498047 19.3357C0.498047 19.5119 0.568019 19.6808 0.692578 19.8054C0.817137 19.93 0.986084 20 1.16225 20L6.49805 20C7.05033 20 7.49805 19.5523 7.49805 19V15C7.49805 14.436 8.05014 13.9788 8.61434 13.9788H12.3808C12.9451 13.9788 13.498 14.436 13.498 15V19C13.498 19.5523 13.9458 20 14.498 20H19.8338C20.01 20 20.179 19.93 20.3035 19.8054C20.4281 19.6808 20.498 19.5119 20.498 19.3357V9C20.498 8.72114 20.4396 8.44537 20.3265 8.19044C20.2135 7.93551 20.0484 7.70707 19.8417 7.5198Z" fill="#C5D0E6"/>
</g>
<defs>
<clipPath id="clip0_1_18095">
<rect width="20" height="20" fill="white" transform="translate(0.498047)"/>
</clipPath>
</defs>
</svg>
