<svg width="21" height="20" viewBox="0 0 21 20" fill="none" xmlns="http://www.w3.org/2000/svg">
<ellipse cx="10.498" cy="15" rx="6" ry="3" fill="#C5D0E6"/>
<circle cx="10.498" cy="6" r="4" fill="#C5D0E6"/>
<path fill-rule="evenodd" clip-rule="evenodd" d="M5.74805 3.46824C4.70189 4.0734 3.99805 5.20451 3.99805 6.5C3.99805 7.79549 4.70189 8.9266 5.74805 9.53176C5.23324 9.82956 4.63555 10 3.99805 10C2.06505 10 0.498047 8.433 0.498047 6.5C0.498047 4.567 2.06505 3 3.99805 3C4.63555 3 5.23324 3.17044 5.74805 3.46824Z" fill="#C5D0E6"/>
<path fill-rule="evenodd" clip-rule="evenodd" d="M15.248 3.46824C16.2942 4.0734 16.998 5.20451 16.998 6.5C16.998 7.79549 16.2942 8.9266 15.248 9.53176C15.7629 9.82956 16.3605 10 16.998 10C18.931 10 20.498 8.433 20.498 6.5C20.498 4.567 18.931 3 16.998 3C16.3605 3 15.7629 3.17044 15.248 3.46824Z" fill="#C5D0E6"/>
<path fill-rule="evenodd" clip-rule="evenodd" d="M15.9979 12C15.9979 12 15.998 12 15.998 12C17.3788 12 18.498 13.1193 18.498 14.5C18.498 15.0628 18.3121 15.5822 17.9982 16C19.3789 15.9999 20.498 14.8807 20.498 13.5C20.498 12.1193 19.3788 11 17.998 11C17.1801 11 16.454 11.3928 15.9979 12Z" fill="#C5D0E6"/>
<path fill-rule="evenodd" clip-rule="evenodd" d="M4.99823 12C4.99817 12 4.99811 12 4.99805 12C3.61734 12 2.49805 13.1193 2.49805 14.5C2.49805 15.0628 2.68402 15.5822 2.99787 16C1.61724 15.9999 0.498047 14.8807 0.498047 13.5C0.498047 12.1193 1.61733 11 2.99805 11C3.81596 11 4.54213 11.3928 4.99823 12Z" fill="#C5D0E6"/>
<circle cx="16.998" cy="3.5" r="3" fill="#FF6934" stroke="#262D34"/>
</svg>
