<svg width="20" height="20" viewBox="0 0 20 20" fill="none" xmlns="http://www.w3.org/2000/svg">
<path fill-rule="evenodd" clip-rule="evenodd" d="M4.28472 1.28632C0.582052 2.41942 -0.738149 6.24878 0.391497 9.59909C2.20862 14.9716 10.0014 19 10.0014 19C10.0014 19 17.8521 14.9096 19.6102 9.59909C20.7388 6.24878 19.4102 2.41942 15.7075 1.28632C13.762 0.693263 11.5332 1.0733 10.0014 2.1984C8.38219 1.0413 6.23239 0.689262 4.28472 1.28632ZM13.7574 4.27339C13.3561 4.17069 12.9476 4.41273 12.8448 4.81401C12.7421 5.21529 12.9842 5.62385 13.3855 5.72655C14.768 6.08039 15.5877 7.009 15.6825 7.93363C15.7247 8.34569 16.093 8.64546 16.5051 8.6032C16.9171 8.56094 17.2169 8.19264 17.1747 7.78059C16.9982 6.06042 15.5644 4.73588 13.7574 4.27339Z" fill="#97989D"/>
</svg>
