<svg width="16" height="17" viewBox="0 0 16 17" fill="none" xmlns="http://www.w3.org/2000/svg">
<path d="M15.9988 9.01512C15.7929 11.0379 14.8262 12.9069 13.2944 14.2439C11.7627 15.581 9.78009 16.2865 7.74795 16.2176C5.71586 16.1486 3.78568 15.3104 2.34823 13.8725C0.910615 12.4344 0.0729844 10.504 0.00453265 8.472C-0.0637816 6.4399 0.642211 4.45779 1.97991 2.92641C3.31762 1.39518 5.18701 0.4291 7.20987 0.223786C7.33376 0.210048 7.45028 0.284981 7.48912 0.40337C7.52797 0.52176 7.47838 0.651141 7.37048 0.713458C6.33191 1.33263 5.50713 2.25405 5.00645 3.35451C4.50577 4.45512 4.35301 5.68224 4.56859 6.87189C4.78428 8.06155 5.35801 9.15705 6.21316 10.0119C7.06828 10.8667 8.16408 11.4401 9.35388 11.6552C10.5437 11.8705 11.7709 11.7174 12.8714 11.2164C13.9718 10.7153 14.893 9.89023 15.5119 8.85154C15.5755 8.74689 15.7029 8.70005 15.8192 8.73839C15.9355 8.77673 16.0099 8.89013 15.9989 9.01214L15.9988 9.01512Z" fill="#C5D0E6"/>
</svg>
