<svg width="21" height="20" viewBox="0 0 21 20" fill="none" xmlns="http://www.w3.org/2000/svg">
<path fill-rule="evenodd" clip-rule="evenodd" d="M18.9677 3.8445L20.3812 6.15523C20.6225 6.54935 20.4778 7.05763 20.0602 7.28491L19.5649 7.55492C18.8066 7.96824 18.3726 8.67768 18.3726 9.50445V10.495C18.3726 11.3218 18.8067 12.0312 19.5649 12.4445L20.0602 12.7145C20.4778 12.9417 20.6219 13.4499 20.3812 13.8442L18.9677 16.1549C18.7264 16.5491 18.1885 16.685 17.7707 16.4578L17.2748 16.1878C16.5158 15.7745 15.6469 15.7745 14.8887 16.1884L13.9805 16.6837C13.2228 17.097 12.7888 17.8065 12.7888 18.6326V19.1726C12.7888 19.6276 12.3942 20 11.9121 20H9.08538C8.60323 20 8.20866 19.6275 8.20866 19.1726V18.6326C8.20866 17.8066 7.77529 17.0972 7.01696 16.6837L6.10877 16.1884C5.34981 15.7744 4.48092 15.7744 3.72196 16.1878L3.22541 16.4584C2.80778 16.6856 2.26918 16.5496 2.02834 16.1555L0.614911 13.8448C0.3736 13.4507 0.518263 12.9424 0.935893 12.7151L1.43119 12.4451C2.19015 12.0318 2.62352 11.3223 2.62352 10.4956V9.50443C2.62352 8.6784 2.18937 7.96823 1.43119 7.5549L0.935893 7.28489C0.518263 7.05717 0.374199 6.54949 0.614911 6.15522L2.02834 3.84449C2.26966 3.45037 2.80762 3.31441 3.22541 3.54157L3.72196 3.81216C4.48092 4.22549 5.34981 4.22549 6.10877 3.81158L7.01696 3.31631C7.77529 2.90298 8.20866 2.19355 8.20866 1.36737V0.82736C8.20866 0.372358 8.60335 0 9.08538 0H11.9121C12.3943 0 12.7888 0.372469 12.7888 0.82736V1.36737C12.7888 2.1934 13.2222 2.90283 13.9805 3.31631L14.8887 3.81158C15.6477 4.22561 16.5166 4.22561 17.2755 3.81216L17.7721 3.54157C18.1897 3.31443 18.7283 3.45037 18.9692 3.84449L18.9677 3.8445ZM10.4981 6.15523C12.9578 6.15523 14.498 7.67874 14.498 10C14.498 12.3213 12.9578 13.8448 10.4981 13.8448C8.03836 13.8448 6.49805 12.3208 6.49805 9.99959C6.49805 7.67832 8.03836 6.15523 10.4981 6.15523Z" fill="#C5D0E6"/>
</svg>
