<svg width="16" height="17" viewBox="0 0 16 17" fill="none" xmlns="http://www.w3.org/2000/svg">
<path d="M7.99854 2.66947C7.66916 2.66947 7.40234 2.40839 7.40234 2.08641V0.805226C7.40234 0.48311 7.6693 0.222168 7.99854 0.222168C8.32777 0.222168 8.59461 0.483242 8.59461 0.805226V2.08641C8.59461 2.40852 8.32777 2.66947 7.99854 2.66947Z" fill="#FF6934"/>
<path d="M7.99854 16.2221C7.66916 16.2221 7.40234 15.961 7.40234 15.6391V14.3578C7.40234 14.0357 7.6693 13.7749 7.99854 13.7749C8.32777 13.7749 8.59461 14.0357 8.59461 14.3578V15.6391C8.59461 15.961 8.32777 16.2221 7.99854 16.2221Z" fill="#FF6934"/>
<path d="M13.4622 5.78817C13.2542 5.78817 13.0521 5.68153 12.9424 5.49153C12.7805 5.21134 12.8816 4.85525 13.1685 4.69691L14.3093 4.06709C14.5959 3.90874 14.9598 4.00801 15.1216 4.2882C15.2835 4.56851 15.1822 4.92448 14.8954 5.08282L13.7549 5.71252C13.662 5.76388 13.5614 5.78818 13.4622 5.78818L13.4622 5.78817Z" fill="#FF6934"/>
<path d="M1.39748 12.4521C1.18964 12.4521 0.987231 12.3455 0.877712 12.1556C0.716149 11.875 0.817303 11.5193 1.10392 11.361L2.24476 10.7313C2.53196 10.5728 2.89536 10.6719 3.05703 10.9524C3.21871 11.2329 3.11768 11.5886 2.83094 11.747L1.69011 12.3767C1.59743 12.4282 1.49699 12.4521 1.39748 12.4521L1.39748 12.4521Z" fill="#FF6934"/>
<path d="M2.5373 5.78849C2.43803 5.78849 2.33723 5.76443 2.24491 5.71318L1.10408 5.08336C0.81746 4.92501 0.715953 4.56938 0.877869 4.28874C1.03978 4.00855 1.40319 3.90917 1.69039 4.06763L2.83122 4.69745C3.11784 4.85545 3.2191 5.21143 3.05731 5.49183C2.94745 5.68162 2.74549 5.78847 2.5373 5.78847L2.5373 5.78849Z" fill="#FF6934"/>
<path d="M14.6019 12.4521C14.5026 12.4521 14.4017 12.4281 14.3094 12.3768L13.1683 11.7468C12.8818 11.5888 12.7804 11.233 12.9424 10.9524C13.1041 10.6721 13.4676 10.5727 13.7547 10.7313L14.8958 11.3608C15.1823 11.5192 15.2839 11.8749 15.1216 12.1554C15.0122 12.3456 14.8104 12.4522 14.6019 12.4522L14.6019 12.4521Z" fill="#FF6934"/>
<path d="M8.00013 4.22217C5.79087 4.22217 4 6.01309 4 8.22204C4 10.4313 5.79092 12.2222 8.00013 12.2222C10.2093 12.2222 12 10.4312 12 8.22204C12 6.01299 10.2093 4.22217 8.00013 4.22217ZM10.8046 8.25623C10.7918 8.25786 10.779 8.25868 10.7665 8.25868C10.6205 8.25868 10.4934 8.1502 10.4742 8.00124C10.315 6.76544 9.29886 5.79096 8.05755 5.68403C7.89545 5.67016 7.77504 5.52733 7.78922 5.36482C7.80298 5.20262 7.94561 5.08271 8.10834 5.09617C9.62399 5.22657 10.8653 6.41617 11.0595 7.92545C11.0802 8.08765 10.9661 8.23559 10.8045 8.25629L10.8046 8.25623Z" fill="#FF6934"/>
</svg>
